{"title":"Alvin And The Chipmunks: The Squeakquel (2009) CAM NORARS","uid":5247190,"size":508149911,"categoryP":"video","categoryS":"movies","magnet":"?xt=urn:btih:d1a99698cf945e0fbb4ad4be3f9bcf5d3e87af2a&amp;dn=Alvin+And+The+Chipmunks%3A+The+Squeakquel+%282009%29+CAM+NORARS&amp;tr=udp%3A%2F%2Ftracker.openbittorrent.com%3A80&amp;tr=udp%3A%2F%2Fopen.demonii.com%3A1337&amp;tr=udp%3A%2F%2Ftracker.coppersurfer.tk%3A6969&amp;tr=udp%3A%2F%2Fexodus.desync.com%3A6969","seeders":0,"leechers":1,"uploader":"IwannaFan2","files":2,"time":1262032255,"description":"Alvin And The Chipmunks: The Squeakquel (2009)\nVideo Sample: &lt;a href=&quot;\nhttp://www.imdb.com/title/tt1231580/&quot; rel=&quot;nofollow&quot; target=&quot;_NEW&quot;&gt;\nhttp://www.imdb.com/title/tt1231580/&lt;/a&gt;\n\n\nFormat                           : AVI\nFormat/Info                      : Audio Video Interleave\nFile size                        : 485 MiB\nDuration                         : 1h 22mn\nOverall bit rate                 : 826 Kbps\nWriting library                  : TMPGEnc 4.0 XPress Version. 4.2.3.193\n\nVideo\nID                               : 0\nFormat                           : MPEG-4 Visual\nFormat profile                   : AdvancedSimple@L5\nFormat settings, BVOP            : Yes\nFormat settings, QPel            : No\nFormat settings, GMC             : No warppoints\nFormat settings, Matrix          : Default (H.263)\nMuxing mode                      : Packed bitstream\nCodec ID                         : XVID\nCodec ID/Hint                    : XviD\nDuration                         : 1h 22mn\nBit rate                         : 557 Kbps\nWidth                            : 540 pixels\nHeight                           : 254 pixels\nDisplay aspect ratio             : 2.2:1\nFrame rate                       : 25.000 fps\nResolution                       : 24 bits\nColorimetry                      : 4:2:0\nScan type                        : Progressive\nBits/(Pixel*Frame)               : 0.162\nStream size                      : 327 MiB (67%)\nWriting library                  : XviD 1.2.1 (UTC 2008-12-04)\n\nAudio\nID                               : 1\nFormat                           : MPEG Audio\nFormat version                   : Version 1\nFormat profile                   : Layer 3\nCodec ID                         : 55\nCodec ID/Hint                    : MP3\nDuration                         : 1h 22mn\nBit rate mode                    : Constant\nBit rate                         : 256 Kbps\nChannel(s)                       : 2 channels\nSampling rate                    : 44.1 KHz\nResolution                       : 16 bits\nStream size                      : 150 MiB (31%)\nAlignment                        : Aligned on interleaves\nInterleave, duration             : 40 ms (1.00 video frame)\nInterleave, preload duration     : 417 ms","torrent":{"xt":"urn:btih:d1a99698cf945e0fbb4ad4be3f9bcf5d3e87af2a","amp;dn":"Alvin+And+The+Chipmunks%3A+The+Squeakquel+%282009%29+CAM+NORARS","amp;tr":["udp%3A%2F%2Ftracker.openbittorrent.com%3A80","udp%3A%2F%2Fopen.demonii.com%3A1337","udp%3A%2F%2Ftracker.coppersurfer.tk%3A6969","udp%3A%2F%2Fexodus.desync.com%3A6969"],"infoHash":"d1a99698cf945e0fbb4ad4be3f9bcf5d3e87af2a","infoHashBuffer":{"type":"Buffer","data":[209,169,150,152,207,148,94,15,187,74,212,190,63,155,207,93,62,135,175,42]},"announce":[],"urlList":[]}}